<?xml version="1.0" standalone="no"?>
<!DOCTYPE svg PUBLIC "-//W3C//DTD SVG 20010904//EN"
 "http://www.w3.org/TR/2001/REC-SVG-20010904/DTD/svg10.dtd">
<svg version="1.0" xmlns="http://www.w3.org/2000/svg"
 width="1280.000000pt" height="1280.000000pt" viewBox="0 0 1280.000000 1280.000000"
 preserveAspectRatio="xMidYMid meet">
<metadata>
Created by potrace 1.15, written by Peter Selinger 2001-2017
</metadata>
<g transform="translate(0.000000,1280.000000) scale(0.100000,-0.100000)"
fill="#000000" stroke="none">
<path d="M8920 10499 c-283 -5 -776 -12 -1095 -16 -555 -8 -581 -9 -614 -28
-19 -11 -42 -31 -53 -45 -10 -14 -45 -130 -79 -260 -33 -129 -93 -365 -134
-525 -420 -1641 -586 -2290 -590 -2293 -5 -5 -20 50 -135 493 -56 215 -176
674 -266 1020 -91 347 -208 794 -260 995 -100 382 -112 413 -172 444 -15 7
-146 46 -292 87 l-264 73 -1281 -17 c-1665 -23 -1864 -27 -1902 -38 -37 -12
-90 -68 -100 -107 -6 -26 13 -718 72 -2602 6 -190 33 -1091 65 -2135 54 -1773
62 -2038 75 -2410 l13 -400 124 -387 c69 -212 132 -398 142 -413 10 -15 38
-36 63 -47 53 -23 -95 -33 1222 76 919 77 909 75 958 128 45 48 45 42 34 823
-6 407 -15 1120 -21 1585 -5 465 -12 933 -15 1040 -3 107 -4 192 -1 189 6 -5
88 -296 547 -1924 121 -429 226 -797 233 -817 8 -21 130 -207 271 -414 241
-351 261 -378 302 -396 l44 -20 867 71 c616 51 879 76 910 87 29 11 51 28 67
53 16 25 94 300 249 886 125 468 229 855 231 860 2 6 4 -195 3 -445 -1 -392 1
-460 15 -485 25 -48 730 -727 777 -748 40 -18 50 -17 468 17 235 20 646 54
915 76 268 22 500 45 515 51 35 13 60 37 79 72 15 30 19 131 73 1897 11 371
29 961 40 1310 11 349 22 712 25 805 3 94 12 388 20 655 24 787 54 1771 70
2275 21 650 20 674 -7 715 -47 69 -41 67 -519 136 l-444 63 -365 -1 c-201 -1
-597 -5 -880 -9z"/>
</g>
</svg>
