<?xml version="1.0" standalone="no"?>
<!DOCTYPE svg PUBLIC "-//W3C//DTD SVG 20010904//EN"
 "http://www.w3.org/TR/2001/REC-SVG-20010904/DTD/svg10.dtd">
<svg version="1.0" xmlns="http://www.w3.org/2000/svg"
 width="1280.000000pt" height="1280.000000pt" viewBox="0 0 1280.000000 1280.000000"
 preserveAspectRatio="xMidYMid meet">
<metadata>
Created by potrace 1.15, written by Peter Selinger 2001-2017
</metadata>
<g transform="translate(0.000000,1280.000000) scale(0.100000,-0.100000)"
fill="#000000" stroke="none">
<path d="M10615 10105 c-275 -60 -598 -281 -1019 -695 -216 -213 -349 -360
-498 -552 l-78 -99 8 48 c14 95 7 403 -11 477 -57 226 -194 423 -348 498 -33
16 -189 59 -388 107 -362 89 -434 97 -556 66 -320 -82 -721 -461 -1097 -1035
-390 -595 -781 -1443 -1173 -2545 -51 -143 -132 -370 -180 -505 -315 -888
-497 -1288 -761 -1673 -181 -264 -353 -436 -563 -562 l-63 -38 -83 21 c-104
27 -244 86 -347 149 -192 116 -420 314 -588 510 -51 60 -100 113 -109 119 -12
9 -103 3 -389 -26 -336 -33 -376 -39 -394 -58 l-21 -20 26 -199 c15 -109 31
-247 37 -308 6 -60 13 -117 16 -126 7 -24 196 -182 304 -254 52 -35 151 -91
220 -124 215 -103 395 -144 635 -144 140 0 179 5 570 71 452 77 522 92 664
147 438 167 876 560 1245 1118 393 593 781 1432 1286 2781 515 1377 707 1794
944 2051 l64 70 -23 -110 c-96 -446 -314 -1145 -985 -3155 -208 -624 -440
-1320 -515 -1547 -132 -402 -172 -515 -233 -658 -42 -100 -148 -412 -172 -505
-24 -94 -25 -141 -4 -181 25 -48 66 -60 148 -43 37 8 188 37 334 65 263 50
267 51 366 103 56 30 153 70 216 91 125 39 190 75 244 135 48 53 54 65 157
347 576 1565 1223 2891 1987 4068 47 72 88 134 93 139 4 5 -47 -130 -115 -300
-464 -1163 -975 -2654 -1151 -3355 -94 -375 -108 -466 -109 -674 0 -209 14
-280 86 -425 32 -66 59 -102 122 -165 68 -68 98 -89 186 -133 187 -92 409
-130 690 -119 247 10 335 28 900 177 352 92 551 167 807 300 147 77 382 220
404 246 8 10 12 37 11 78 -4 107 -27 146 -84 146 -13 0 -134 -25 -269 -55
-241 -53 -246 -55 -354 -116 -228 -127 -527 -270 -737 -350 -80 -31 -82 -31
-222 -26 -154 5 -210 19 -283 69 -49 33 -89 108 -99 184 -8 66 10 207 47 364
40 168 176 578 531 1600 442 1272 745 2086 1224 3285 123 309 235 606 250 660
48 177 32 317 -45 394 -33 33 -60 44 -316 124 -299 93 -325 98 -440 72z"/>
</g>
</svg>
