<?xml version="1.0" standalone="no"?>
<!DOCTYPE svg PUBLIC "-//W3C//DTD SVG 20010904//EN"
 "http://www.w3.org/TR/2001/REC-SVG-20010904/DTD/svg10.dtd">
<svg version="1.0" xmlns="http://www.w3.org/2000/svg"
 width="1280.000000pt" height="724.000000pt" viewBox="0 0 1280.000000 724.000000"
 preserveAspectRatio="xMidYMid meet">
<metadata>
Created by potrace 1.15, written by Peter Selinger 2001-2017
</metadata>
<g transform="translate(0.000000,724.000000) scale(0.100000,-0.100000)"
fill="#000000" stroke="none">
<path d="M5185 7234 c-16 -2 -77 -9 -135 -15 -605 -64 -1257 -361 -1808 -823
-51 -43 -95 -76 -98 -73 -12 12 -75 259 -104 406 -48 251 -106 396 -183 454
-84 63 -214 63 -402 -1 -306 -104 -1966 -838 -2124 -939 -117 -75 -243 -223
-277 -325 -32 -97 6 -214 110 -340 54 -65 102 -101 245 -184 304 -177 478
-436 536 -794 18 -117 18 -77 13 -1900 -4 -1384 -5 -1489 -22 -1549 -36 -130
-93 -209 -184 -255 -82 -41 -134 -47 -358 -44 l-210 3 -49 -30 c-93 -58 -135
-187 -135 -421 0 -126 12 -194 48 -264 34 -68 102 -113 195 -129 43 -7 566 -8
1702 -2 1629 9 1640 9 1699 30 122 43 266 162 266 220 0 42 -28 200 -50 284
-30 114 -67 200 -103 241 -27 30 -43 38 -104 50 -143 29 -242 98 -288 200 -51
111 -50 63 -49 2006 1 1993 -3 1870 60 2087 150 519 515 803 1032 803 482 0
732 -206 802 -660 20 -128 29 -738 36 -2355 7 -1604 6 -1687 -31 -1809 -30
-100 -82 -164 -169 -208 -65 -33 -93 -39 -232 -47 -179 -12 -242 -42 -291
-139 -26 -53 -26 -259 1 -355 32 -117 147 -266 247 -318 44 -23 48 -23 514
-30 705 -11 2709 -9 2784 2 115 18 187 69 226 163 24 57 35 225 25 365 -13
171 -44 236 -135 284 -33 18 -65 22 -190 28 -172 8 -233 23 -295 77 -23 19
-51 55 -64 81 -52 102 -50 36 -48 1946 2 1083 7 1821 13 1885 26 271 86 437
218 602 245 307 647 500 957 458 260 -34 468 -165 599 -375 98 -157 133 -288
142 -525 9 -261 -14 -1332 -57 -2675 -40 -1266 -51 -1579 -53 -1581 -1 -1 -65
-29 -142 -63 -77 -34 -145 -67 -152 -74 -10 -11 -153 -461 -153 -483 0 -13
291 -92 380 -104 111 -14 3163 -13 3232 1 73 15 142 55 172 98 53 76 69 230
46 436 -18 161 -57 232 -147 276 -45 22 -58 23 -220 21 -121 -2 -192 2 -242
12 -162 34 -264 132 -306 293 -33 127 -35 247 -19 1018 18 865 21 2351 6 2760
-6 154 -18 332 -27 395 -146 1041 -1005 1796 -2105 1849 -618 30 -1177 -125
-1719 -476 -181 -118 -341 -243 -535 -420 l-99 -90 -81 101 c-412 513 -949
826 -1586 922 -91 14 -463 27 -525 18z"/>
</g>
</svg>
